<?xml version="1.0" standalone="no"?>
<!DOCTYPE svg PUBLIC "-//W3C//DTD SVG 20010904//EN" "http://www.w3.org/TR/2001/REC-SVG-20010904/DTD/svg10.dtd">
<!-- Created using Krita: http://krita.org -->
<svg xmlns="http://www.w3.org/2000/svg" 
    xmlns:xlink="http://www.w3.org/1999/xlink"
    xmlns:krita="http://krita.org/namespaces/svg/krita"
    xmlns:sodipodi="http://sodipodi.sourceforge.net/DTD/sodipodi-0.dtd"
    width="245.76pt"
    height="245.76pt"
    viewBox="0 0 245.76 245.76">
<defs/>
<path id="shape0" transform="matrix(0.479029262508145 -0.949131152623684 1.00101138535086 0.454202222590573 130.370660070272 185.880004191542)" fill="#008aa2" fill-rule="evenodd" stroke="#000000" stroke-width="0.24" stroke-linecap="square" stroke-linejoin="bevel" d="M13.1775 16.6334L15.2445 12.2305L14.7278 5.1368L11.1104 2.6907L12.9191 8.07211L10.852 15.4104L6.97631 0L5.6844 3.91375L8.52661 15.655L2.8422 8.80594L2.58382 5.38141L0 10.2736L7.49308 17.8565L7.49308 19.8134"/><path id="shape1" transform="matrix(1.33846871775027 0 0 1.37519446514814 2.84217100656787e-14 71.6399983152382)" fill="#5fcde4" fill-rule="evenodd" stroke="#000000" stroke-width="0.24" stroke-linecap="square" stroke-linejoin="bevel" d="M74.4773 0L97.9815 2.202L134.795 16.2397L160.282 50.9212L154.618 89.4561L130.831 120.009L90.3356 126.615L42.4775 125.239L0 104.595L4.81412 75.1431L39.0793 64.6837L26.3361 84.7769L36.2475 109.825L79.669 111.751L114.689 82.0244L102.512 58.0777L79.669 56.1509"/><path id="shape3" transform="matrix(2.47029763836824 0 0 2.16078889582851 50.5185590210905 58.6619943343117)" sodipodi:type="arc" sodipodi:rx="17.2251219968851" sodipodi:ry="15.7826240956681" sodipodi:cx="17.2267331119047" sodipodi:cy="15.7826462629019" sodipodi:start="1.98337661627991" sodipodi:end="1.12712175043433" sodipodi:open="true" d="M24.6208 30.0372C31.9394 26.8501 35.844 19.4202 33.9998 12.1905C32.1555 4.96087 25.0611 -0.113496 16.9589 0.00192957C8.85681 0.117355 1.93797 5.39136 0.339909 12.6701C-1.25815 19.9488 2.89673 27.2639 10.3199 30.2409" fill="#5fcde4" fill-rule="evenodd" stroke="#000000" stroke-width="0.24" stroke-linecap="square" stroke-linejoin="bevel"/><path id="shape4" transform="matrix(1.34731758360935 0 0 1.12701286046353 57.3489261368611 135.386910538544)" fill="#cbdbfc" fill-rule="evenodd" stroke="#000000" stroke-width="0.24" stroke-linecap="square" stroke-linejoin="bevel" d="M4.41296 0C4.41296 7.35694 -1.77922 13.5583 0.506429 21.7867C3.489 32.5239 27.0408 21.1322 37.0167 26.7437C70.0716 45.337 47.1755 14.9631 47.1755 0.106763"/><path id="shape5" transform="matrix(1.34731758360935 0 0 1.12701286046353 53.5891432207607 121.341292880355)" fill="#5fcde4" fill-rule="evenodd" stroke="#000000" stroke-width="0.24" stroke-linecap="square" stroke-linejoin="bevel" d="M0 0.296985C40.5426 65.4869 17.4558 66.3994 57.2969 0"/><path id="shape6" transform="matrix(1.34731758360935 0 0 1.12701286046353 40.0731186863243 81.5518641462272)" sodipodi:type="arc" sodipodi:rx="20.7603905561133" sodipodi:ry="24.48" sodipodi:cx="20.7603905561133" sodipodi:cy="24.48" sodipodi:start="6.28318530717959" sodipodi:end="6.28318530717958" sodipodi:open="true" d="M41.5208 24.48C41.5208 10.9601 32.226 -5.02066e-14 20.7604 0C9.29474 5.02066e-14 -8.7794e-15 10.9601 0 24.48C8.7794e-15 37.9999 9.29474 48.96 20.7604 48.96C32.226 48.96 41.5208 37.9999 41.5208 24.48Z" fill="#ffffff" fill-rule="evenodd" stroke="#000000" stroke-width="0.24" stroke-linecap="square" stroke-linejoin="bevel"/><ellipse id="shape01" transform="matrix(1.34731754180123 0 0 1.12701289853442 89.0035541781618 81.3103533740492)" rx="20.5217711280623" ry="24.48" cx="20.5217711280623" cy="24.48" fill="#ffffff" stroke="#000000" stroke-width="0.24" stroke-linecap="square" stroke-linejoin="bevel"/><path id="shape7" transform="matrix(1.91391658568215 0 0 1.12701286046353 30.0731186863243 192.122538437174)" fill="none" stroke="#000000" stroke-width="1.2" stroke-linecap="square" stroke-linejoin="bevel" d="M0 0"/><ellipse id="shape8" transform="matrix(1.34731758360935 0 0 1.12701286046353 50.7926800716804 112.112187567302)" rx="5.28" ry="5.04" cx="5.28" cy="5.04" fill="none" stroke="#3f3f74" stroke-width="7.2" stroke-linecap="square" stroke-linejoin="bevel"/><ellipse id="shape01" transform="matrix(1.34731756934202 0 0 1.12701285581526 117.500919817206 95.6522564246133)" rx="5.28" ry="5.04" cx="5.28" cy="5.04" fill="none" stroke="#3f3f74" stroke-width="7.2" stroke-linecap="square" stroke-linejoin="bevel"/><ellipse id="shape02" transform="matrix(1.34731759398184 0 0 1.12701281250524 87.8035451436497 142.18205860405)" rx="0.954231483397903" ry="7.96286020867076" cx="0.954231483397903" cy="7.96286020867076" fill="#3f3f74" stroke="#000000" stroke-opacity="0" stroke-width="0" stroke-linecap="square" stroke-linejoin="bevel"/><ellipse id="shape03" transform="matrix(1.34731763843094 0 0 1.1270128207322 94.7458443400768 142.260800671643)" rx="0.954231483397903" ry="7.96286020867076" cx="0.954231483397903" cy="7.96286020867076" fill="#3f3f74" stroke="#000000" stroke-opacity="0" stroke-width="0" stroke-linecap="square" stroke-linejoin="bevel"/><path id="shape11" transform="matrix(2.47029763836824 0 0 2.16078889582851 80.5981161716199 79.6909235366198)" fill="#cbdbfc" fill-rule="evenodd" stroke="#000000" stroke-width="0.24" stroke-linecap="square" stroke-linejoin="bevel" d="M2.455 0.03C4.84159 6.39686 4.45442 12.0362 0.64676 20.3546C-1.95921 31.2466 4.09341 26.2165 4.97183 23.4864C5.73159 26.2241 12.8456 31.6357 8.93747 20.2368C5.24419 11.8459 5.02402 6.48172 7.525 0Z"/><path id="shape13" transform="matrix(2.14335949337443 0 0 2.04663056786424 81.5297849602886 -7.51195283546373e-06)" fill="#cbdbfc" fill-rule="evenodd" stroke="#000000" stroke-width="0.24" stroke-linecap="square" stroke-linejoin="bevel" d="M0 16.0869C2.73382 11.5609 13.0163 -10.958 6.27635 6.60218C6.86757 15.8971 26.4512 30.015 8.31634 15.8488"/><path id="shape14" transform="matrix(3.04472481718758 0 0 2.04663056786424 65.9495766972842 32.0094604805362)" fill="#cbdbfc" fill-rule="evenodd" stroke="#000000" stroke-width="0.24" stroke-linecap="square" stroke-linejoin="miter" stroke-miterlimit="2" d="M5.29174 0C-15.6759 33.5382 34.0182 33.8144 10.8562 0.169707"/><path id="shape15" transform="matrix(1.10972646536935 0 0 1.00000002235174 147.07440317073 42.2567036955566)" fill="#0098b6" fill-rule="evenodd" stroke="#000000" stroke-width="0.24" stroke-linecap="square" stroke-linejoin="bevel" d="M1.86676 38.8626L0 29.3591L20.195 8.48528L61.094 0L52.6087 6.95793L56.1726 7.63675L84.8528 17.8191L70.937 18.1585L80.2708 24.2679L66.6943 23.5891L81.6284 34.7897L81.7981 62.282L20.7041 56.3423"/><path id="shape16" transform="matrix(1.10972646536935 0 0 1.00000002235174 157.337004788391 47.0399988937578)" fill="#5fcde4" fill-rule="evenodd" stroke="#000000" stroke-width="0.24" stroke-linecap="square" stroke-linejoin="bevel" d="M11.52 79.2L0 30.72L21.6 8.4L60.96 0L47.76 9.6L77.76 18L52.8 16.32L64.32 22.56L48.48 18.72L78.24 43.92L79.68 100.32L67.44 156.24L48.48 182.88L42.96 153.12L38.16 88.32L21.6 59.04L22.56 95.28"/><path id="shape0" transform="translate(-22.679998466592, 42.1199971522422)" fill="#639bff" fill-opacity="0.4" fill-rule="evenodd" stroke="#000000" stroke-opacity="0" stroke-width="0" stroke-linecap="square" stroke-linejoin="bevel" d="M0 212.4L8.64 58.32L43.56 37.08L56.88 88.56L72.36 99L79.92 126L105.84 147.6L129.6 151.2L176.4 152.28L187.92 146.88L208.8 126L216.72 62.64L239.4 54.36L250.56 10.08L281.88 0L290.16 224.64"/><ellipse id="shape1" transform="matrix(0.636363658996983 0 0 0.470588267629926 89.5800031593781 81.5400056024872)" rx="3.96" ry="4.08000000000001" cx="3.96" cy="4.08000000000001" fill="#cbdbfc" fill-rule="evenodd" stroke="#000000" stroke-opacity="0" stroke-width="0" stroke-linecap="square" stroke-linejoin="bevel"/><text id="shape2" krita:useRichText="true" transform="matrix(-1 0 0 -1 202.996249331969 196.479998157222)" fill="#ffffff" stroke="#cbdbfc" stroke-width="0.24" stroke-linecap="square" stroke-linejoin="bevel" font-family="URW Gothic" font-size="48" font-size-adjust="0.514706" font-weight="600" text-anchor="middle"><tspan x="51.8359375">msi</tspan></text>
</svg>
